# xmcd
#
# Track frame offsets: 
#        150
#        15363
#        33530
#        50691
#        66602
#        80534
#        94917
#        115562
#        130788
#        145000
#        172141
#        187827
#        202203
#
# Disc length: 2732 seconds
#
# Revision: 0
# Processed by: cddbd v1.5.1PL0 Copyright (c) Steve Scherf et al.
# Submitted via: ExactAudioCopy v0.95b2
#
DISCID=b70aaa0d
DTITLE=Martin Grosswendt - Call and Response
DYEAR=2003
DGENRE=Blues
TTITLE0=Fixin' to Die Blues
TTITLE1=Screamin' and Hollerin' the Blues
TTITLE2=The Prodigal Son
TTITLE3=Savannah Mama
TTITLE4=Police Dog Blues
TTITLE5=Going to Move to Alabama
TTITLE6=Pony Blues
TTITLE7=Mississippi Heavy Water Blues
TTITLE8=Sweet to Mama
TTITLE9=Floating Bridge
TTITLE10=Fare Thee Well Blues
TTITLE11=The Good Times Are Killing Me
TTITLE12=Untitled
EXTD=
EXTT0=
EXTT1=
EXTT2=
EXTT3=
EXTT4=
EXTT5=
EXTT6=
EXTT7=
EXTT8=
EXTT9=
EXTT10=
EXTT11=
EXTT12=
PLAYORDER=
